<svg baseProfile="full" xmlns="http://www.w3.org/2000/svg" width="230" height="80"><clipPath id="a"><path d="M0 0h230v80H0z"/></clipPath><g clip-path="url(#a)" fill="none"><g stroke="#aaa" stroke-width="2"><path d="M80 0v140M0 70h230"/></g><g stroke="#28dcdc" stroke-width="4"><path d="M10.878 136c4.102-4.349 8.203-8.699 12.292-13.057 4.407-4.957 8.843-9.886 13.227-14.859 2.541-3.113 5.132-6.188 7.643-9.325 1.54-2.106 3.148-4.164 4.642-6.302 1.493-2.138 3.535-5.208 4.923-8.037 2.393-4.547 4.075-9.647 3.772-14.841-.278-5.265-2.417-10.227-5.03-14.733-1.12-1.936-2.399-3.777-3.596-5.666-1.769-2.362-3.475-4.774-5.285-7.105-2.546-3.071-5.039-6.186-7.616-9.23-3.896-4.37-7.755-8.774-11.675-13.122-3.667-3.896-7.329-7.796-10.991-11.695M149.122 136c-1.05-1.09-2.097-2.182-3.145-3.273-5.747-6.278-11.52-12.533-17.25-18.826-3.026-3.545-6.093-7.055-9.091-10.622-2.05-2.636-4.154-5.232-6.17-7.894-2.008-2.914-4.156-5.743-5.856-8.856-2.614-4.525-4.715-9.53-4.928-14.816-.236-5.253 1.537-10.38 3.996-14.953 1.438-2.795 3.169-5.427 4.999-7.979 1.212-1.748 1.737-2.587 3.769-5.147 2.033-2.56 3.984-5.185 6.154-7.63 2.48-2.873 4.905-5.793 7.422-8.633 5.557-6.059 11.086-12.145 16.66-18.189l1.087-1.13"/></g></g><path fill="#28dcdc" stroke="#28dcdc" d="M129.32 64.63h0l-3.48 2.94h0q-2.48 2.17-3.32 2.17h0q-.76 0-1.6-1.75h0q-.84-1.74-.84-3.05h0q0-1.12.34-1.89h0q.34-.77 1.18-2h0q1.19-1.66 2.29-2.81h0q1.09-1.15 1.93-1.79h0q.84-.63 1.17-.63h0q.53 0 1.03.54h0q.5.55.5 1.14h0q0 .37-.54 1.19h0q-.54.82-1.7 2.08h0q-1.16 1.26-3.23 3.02h0l-.37 1.07h0q-.16.31-.16.55h0q0 .52.53.52h0q.54 0 2.57-1.38h0q2.02-1.39 4.38-3.73h0q.92-.92 1.52-1.62h0q.61-.71 1.1-1.32h0q.49-.62.81-.93h0q.32-.31.57-.33h0q.49-.06.77.41h0q.27.47.27 1.38h0q0 .53-.47 1.32h0q-.47.79-1.76 2.7h0q-1.29 1.9-2.57 3.94h0q-1.28 2.04-2.6 4.6h0q.06-.06 1.2-1.17h0q1.14-1.11 2.41-2.32h0q1.27-1.21 2.09-1.95h0q.82-.73 2.05-1.71h0v1.31h0q-2.64 2.83-4.77 5.37h0q-2.14 2.54-3.31 4.07h0l-1.35 1.77h0q-.53.69-.95 1.28h0q-.42.6-.7.92h0q-.29.32-.46.32h0q-.41 0-.73-.81h0q-.33-.81-.33-1.43h0q0-.57.22-1h0q1.4-3.16 6.31-10.99zm5.76.87h0v-1.36h0q2.73-2.97 4.71-5.59h0q1.99-2.62 3.14-4.16h0q1.15-1.54 2.03-2.18h0q.88-.63 2.21-.63h0q.66 0 .66.51h0q0 .41-.54 1.21h0q-.53.8-1.37 1.64h0q-1.12 1.09-2.18 2.74h0q-1.06 1.65-2.41 4.21h0q1.05-.82 2.43-1.94h0q1.38-1.13 2.25-1.76h0q.87-.64 1.71-1.01h0q.85-.37 1.71-.37h0q.55 0 .72.2h0q.16.19.16.76h0q0 1.48-.72 2.9h0q-.72 1.42-2.07 2.94h0q-1.35 1.52-3.32 3.32h0q.68.25 1.41.25h0q2.26 0 6.07-3.45h0v1.4h0q-1.48 1.33-2.9 2.5h0q-1.42 1.17-2.67 1.88h0q-1.25.7-2.3.7h0q-.39 0-.83-.09h0q-.44-.08-.81-.21h0q-.37-.13-.96-.36h0q-.58-.24-.9-.34h0q-.62.16-.7.16h0q-.68 0-1.6-.55h0q-.65 1.25-1.42 3.24h0q-.77 1.98-1.3 3.15h0q-.52 1.17-1.4 2.25h0q-.49.49-.69.49h0q-.84 0-.84-1.49h0q0-1.29.52-2.68h0q.52-1.4 1.27-2.65h0q.75-1.25 1.65-2.53h0q.9-1.28 1.27-1.9h0q3.09-5.32 4.81-9.05h0q-4.5 5.47-6.8 7.85m7.93.96h0q1.93-2.03 2.88-3.46h0q.95-1.42.95-2.18h0q0-.73-.73-.73h0q-.97 0-2.74 1.62h0q-1.77 1.61-3.64 4.34h0q1.44-.16 1.93-.11h0q.49.05 1.35.52zm11.66-1.89h0v.48h0q0 1.16.56 1.8h0q.57.65 1.49.65h0q.96 0 1.98-.45h0q1.03-.45 2.04-1.19h0q1.02-.75 2.48-2h0v1.19h0q-2.2 2.66-4.14 4.08h0q-1.93 1.41-3.92 1.41h0q-1.74 0-2.76-1.34h0q-1.01-1.35-1.01-3.7h0q0-2.05.95-3.72h0q.96-1.67 3.13-3.52h0q1.48-1.27 2.95-1.92h0q1.46-.64 2.62-.64h0q.91 0 1.45.42h0q.54.42.54 1.26h0q0 1.23-.92 2.45h0q-.92 1.22-2.8 2.42h0q-1.89 1.2-4.64 2.32m.19-1.27h0q1.76-.69 3.01-1.7h0q1.25-1.02 1.85-1.95h0q.59-.92.59-1.35h0q0-.45-.41-.45h0q-.35 0-1.14.45h0q-.79.45-1.6 1.17h0q-.81.72-1.46 1.7h0q-.64.97-.84 2.13zm8.17 2.07h0V64.1h0q1.05-1.25 1.6-2.13h0q-.63-.22-.91-.53h0q-.28-.31-.28-.94h0q0-.7.58-1.77h0q.59-1.08 1.45-2.02h0q.86-.93 1.56-1.21h0q.27-.13.53-.13h0q.39 0 .39.37h0q0 .33-.61 1.35h0q4.03-.63 5.08-.63h0q.41 0 .57.08h0q.33.17.55.82h0q.21.64.21 1.29h0q0 .41-.36.89h0q-.36.48-1.24 1.39h0q-1.04 1.12-1.74 2.43h0q-.7 1.3-.7 1.97h0q0 .92 1.13.92h0q1.19 0 4.14-2.43h0v1.31h0q-1.62 1.7-2.68 2.68h0q-1.05.98-1.95 1.55h0q-.9.58-1.6.58h0q-.82 0-1.37-.75h0q-.54-.76-.54-2.18h0q0-.84.43-1.92h0q.43-1.07 1.26-2.33h0q.83-1.26 1.86-2.51h0q-.55.12-1.23.24h0q-.68.13-1.45.27h0q-.76.13-1.17.21h0q-1.21 2.42-3.51 4.4zm24.8-1.47h0v1.27h0q-2.03 1.29-3.2 1.29h0q-.65 0-1.37-.21h0q-1.76 2.22-3.02 3.26h0q-1.26 1.03-2.53 1.03h0q-1.46 0-2.25-1.54h0q-.79-1.54-.79-3.83h0q0-3.1 1.87-6.77h0q1.88-3.66 4.52-6.85h0q2.65-3.19 5.13-5.28h0q2.48-2.09 3.36-2.09h0q.84 0 .84 1.15h0q0 5.12-13.12 17.85h0q-.04.35-.04 1.39h0q0 2.69 1.44 2.69h0q.57 0 1.14-.46h0q.58-.46 1.77-1.75h0q-.47-1.05-.47-1.56h0q0-1.07.88-2.32h0q.88-1.25 2-2.16h0q1.13-.91 1.64-.91h0q.8 0 .8 1.15h0q0 .88-.46 2.11h0q-.46 1.23-1.34 2.82h0q.33.27.53.4h0q.19.12.58.12h0q.9 0 2.09-.8m-9.92-2.93h0q1.02-.88 2.04-2.08h0q1.03-1.2 3-3.68h0q1.89-2.38 2.98-3.97h0q1.08-1.6 1.63-2.65h0q.55-1.05.55-1.45h0q0-.29-.16-.29h0q-.43 0-1.79 1.42h0q-1.36 1.41-3.09 3.87h0q-2.41 3.4-3.48 5.12h0q-1.07 1.72-1.68 3.71zm22.48 2.85h0v1.31h0q-1.29 1.17-2.07 1.57h0q-.78.39-2.25.31h0q-2.53 3.01-4.47 3.01h0q-1.09 0-1.99-.73h0q-.9-.72-1.44-1.97h0q-.53-1.25-.53-2.79h0q0-1.25.83-2.78h0q.83-1.52 2.15-2.84h0q1.31-1.32 2.82-2.13h0q1.5-.81 2.79-.81h0q.92 0 1.45.29h0q.52.28.52.79h0q0 .39-.45.9h0q.75.15 1.02.51h0q.27.36.27 1.32h0q0 .94-.44 2.36h0q-.44 1.43-1.2 2.68h0l.35.35h.3q.33 0 .65-.16h0q.32-.17.58-.36h0q.25-.18 1.11-.83m-4.02-5.13h0q-1.62.97-2.78 1.77h0q-1.15.79-1.95 1.6h0q-.8.81-1.07 1.63h0q-.49 2.19-.49 2.36h0q0 1.29 1.8 1.29h0q.83 0 2.81-1.45h0q-.33-.91-.33-1.75h0q0-1.23.5-2.51h0q.51-1.28 1.51-2.94zm13.32 4.96h0v1.44h0q-4.08 5.41-6.64 5.41h0q-1.39 0-2.18-1.51h0q-.79-1.51-.79-3.97h0q0-2 .94-4.74h0q.93-2.74 2.51-5.57h0q1.57-2.82 3.26-4.92h0q1.69-2.1 3.13-2.94h0q.59-.35.92-.35h0q.41 0 .55.36h0q.13.36.13 1.24h0q0 2.72-2.2 6.67h0q-2.21 3.96-6.16 8.08h0q-.19 1.01-.19 1.56h0q0 1.25.54 2.03h0q.53.78 1.49.78h0q.49 0 1.05-.38h0q.57-.38 1.2-.95h0q.62-.56 2.44-2.24m-5.84-3.52h0q1.01-.99 1.96-2.26h0q.95-1.27 1.79-2.72h0q.84-1.44 1.32-2.6h0q.47-1.15.47-1.73h0q0-.45-.31-.45h0q-.12 0-.45.21h0q-1.19.98-2.67 3.82h0q-1.49 2.84-2.11 5.73zm7.95.24h0q2.97-2.7 5.76-4.01h0q2.79-1.31 4.32-1.31h0q.41 0 .76.35h0q.35.34.55.79h0q.21.45.21.66h0q0 .35-.27.52h0q-.28.17-.96.4h0q.13.31.35.8h0q.21.49.33.79h0q.12.3.12.54h0q0 .47-.95 1.75h0q-.95 1.28-1.33 1.88h0q-.38.61-.38 1.49h0q0 1.44 1.33 1.44h0q1.37 0 4.28-2.56h0v1.19h0q-4.94 5.49-7.07 5.49h0q-.76 0-1.09-.5h0q-.32-.49-.32-1.47h0q0-1.54 1.11-4.47h0q-2.85 3.16-4.23 4.5h0q-1.39 1.34-2.29 1.34h0q-.43 0-1.07-.75h0q-.65-.74-1.15-1.92h0q-.49-1.18-.49-2.45h0q0-.92.17-1.53h0q.18-.62.69-1.26h0q.5-.65 1.62-1.7m9.35-2.15h0q-5.08 2.32-7.23 3.94h0q-2.16 1.63-2.16 3.34h0q0 .63.21 1.03h0q.22.4.59.4h0q.21 0 .76-.27h0q2.05-1.21 3.75-3.16h0q1.7-1.94 4.08-5.28z"/></svg>