<svg xmlns="http://www.w3.org/2000/svg" width="160" height="160"><rect width="100%" height="100%" fill="#222" ry="17.43"/><g fill="none" stroke="#aaa" stroke-width="4"><path d="M80 0v160M0 80h160"/></g><g fill="none" stroke="#28dcdc" stroke-width="4"><path d="M10.878 146c4.102-4.349 8.203-8.699 12.292-13.057 4.407-4.957 8.843-9.886 13.227-14.859 2.541-3.113 5.132-6.188 7.643-9.325 1.54-2.106 3.148-4.164 4.642-6.302 1.493-2.138 3.535-5.208 4.923-8.037 2.393-4.547 4.075-9.647 3.772-14.841-.278-5.265-2.417-10.227-5.03-14.733-1.12-1.936-2.399-3.777-3.596-5.666-1.769-2.362-3.475-4.774-5.285-7.105-2.546-3.071-5.039-6.186-7.616-9.23-3.896-4.37-7.755-8.774-11.675-13.122-3.667-3.896-7.329-7.796-10.991-11.695M149.122 146c-1.05-1.09-2.097-2.182-3.145-3.273-5.747-6.278-11.52-12.533-17.25-18.826-3.026-3.545-6.093-7.055-9.091-10.622-2.05-2.636-4.154-5.232-6.17-7.894-2.008-2.914-4.156-5.743-5.856-8.856-2.614-4.525-4.715-9.53-4.928-14.816-.236-5.253 1.537-10.38 3.996-14.953 1.438-2.795 3.169-5.427 4.999-7.979 1.212-1.748 1.737-2.587 3.769-5.147 2.033-2.56 3.984-5.185 6.154-7.63 2.48-2.873 4.905-5.793 7.422-8.633 5.557-6.059 11.086-12.145 16.66-18.189l1.087-1.13"/></g></svg>