<svg xmlns="http://www.w3.org/2000/svg" width="16" height="16"><path d="M3.647 0h8.706A3.639 3.639 0 0 1 16 3.647v8.706A3.639 3.639 0 0 1 12.353 16H3.647A3.639 3.639 0 0 1 0 12.353V3.647A3.639 3.639 0 0 1 3.647 0z"/><g color="#000" font-weight="400" font-family="sans-serif" fill="#fff"><path style="line-height:normal;font-variant-ligatures:normal;font-variant-position:normal;font-variant-caps:normal;font-variant-numeric:normal;font-variant-alternates:normal;font-variant-east-asian:normal;font-feature-settings:normal;font-variation-settings:normal;text-indent:0;text-align:start;text-decoration-line:none;text-decoration-style:solid;text-decoration-color:#000;text-transform:none;text-orientation:mixed;white-space:normal;shape-padding:0;shape-margin:0;inline-size:0;isolation:auto;mix-blend-mode:normal;solid-color:#000;solid-opacity:1" d="M7.8 0v16h.4V0z" overflow="visible"/><path style="line-height:normal;font-variant-ligatures:normal;font-variant-position:normal;font-variant-caps:normal;font-variant-numeric:normal;font-variant-alternates:normal;font-variant-east-asian:normal;font-feature-settings:normal;font-variation-settings:normal;text-indent:0;text-align:start;text-decoration-line:none;text-decoration-style:solid;text-decoration-color:#000;text-transform:none;text-orientation:mixed;white-space:normal;shape-padding:0;shape-margin:0;inline-size:0;isolation:auto;mix-blend-mode:normal;solid-color:#000;solid-opacity:1" d="M0 7.8v.4h16v-.4z" overflow="visible"/><path style="line-height:normal;font-variant-ligatures:normal;font-variant-position:normal;font-variant-caps:normal;font-variant-numeric:normal;font-variant-alternates:normal;font-variant-east-asian:normal;font-feature-settings:normal;font-variation-settings:normal;text-indent:0;text-align:start;text-decoration-line:none;text-decoration-style:solid;text-decoration-color:#000;text-transform:none;text-orientation:mixed;white-space:normal;shape-padding:0;shape-margin:0;inline-size:0;isolation:auto;mix-blend-mode:normal;solid-color:#000;solid-opacity:1" d="m1.465 1.464-.292.273 1.1 1.17c.39.433.774.872 1.163 1.308.253.3.5.608.754.914.176.226.344.464.522.701.12.191.245.37.35.553.253.436.451.904.477 1.383v.001c.027.47-.126.945-.355 1.38l-.001.002-.001.003a6.45 6.45 0 0 1-.477.777c-.144.207-.303.41-.459.623-.248.309-.505.614-.759.925l-.002.003c-.435.494-.877.985-1.317 1.48-.407.434-.816.867-1.225 1.3l.291.275 1.23-1.306.001-.002.002-.002c.44-.495.884-.988 1.324-1.487l.002-.002.002-.003c.253-.31.513-.618.766-.934l.003-.004.002-.003c.151-.207.313-.414.467-.634.151-.217.359-.527.506-.828.25-.474.432-1.016.4-1.585-.031-.574-.261-1.098-.53-1.563-.118-.203-.248-.39-.364-.573l-.004-.007-.005-.006c-.175-.233-.346-.476-.53-.713l-.003-.003-.002-.002c-.253-.306-.503-.618-.763-.925l-.001-.002-.002-.002c-.389-.436-.775-.877-1.168-1.313l-.002-.002-.001-.001-1.1-1.17zm13.068 0-.108.113-.002.002-.001.001c-.558.606-1.111 1.214-1.667 1.82l-.002.002c-.254.287-.496.579-.742.863-.225.254-.422.52-.622.772-.205.258-.265.351-.383.522v.001c-.186.259-.364.53-.514.82-.256.477-.449 1.022-.423 1.597.023.576.249 1.105.518 1.572.18.328.399.615.596.9l.002.004.003.004c.204.27.415.53.618.791l.003.003.002.003c.301.36.609.71.91 1.064l.002.002.002.003c.574.63 1.151 1.255 1.726 1.883l.001.001.002.002.315.327.288-.277-.311-.324h-.001l-.003-.003c-.572-.625-1.147-1.248-1.717-1.874l-.002-.003-.002-.002c-.3-.352-.604-.7-.899-1.05L12.121 11c-.205-.264-.414-.52-.611-.781-.204-.296-.413-.572-.573-.865l-.001-.002-.001-.002c-.253-.438-.447-.91-.466-1.39-.022-.476.14-.955.376-1.393v-.001l.001-.002c.137-.267.305-.522.485-.773l.002-.002c.123-.177.168-.252.369-.505.206-.259.399-.518.608-.754l.001-.001.001-.001c.249-.288.49-.579.738-.859l.003-.003c.554-.604 1.105-1.21 1.66-1.812l.001-.002.002-.002.106-.11z" overflow="visible"/></g></svg>