<svg version="1.1" baseProfile="full" xmlns="http://www.w3.org/2000/svg" width="230" height="80" viewBox="0 0 230 80">
<!-- Created lovingly by hand -->
<title>hyperbo.la Logo</title>
<metadata>
  <rdf:RDF
       xmlns:rdf="http://www.w3.org/1999/02/22-rdf-syntax-ns#"
       xmlns:rdfs="http://www.w3.org/2000/01/rdf-schema#"
       xmlns:dc="http://purl.org/dc/elements/1.1/" >
    <rdf:Description about="https://hyperbo.la/"
         dc:title="hyperbo.la Logo"
         dc:description="Logo to be shown in navigation header on https://hyperbo.la"
         dc:publisher="Ryan Lopopolo"
         dc:format="image/svg+xml"
         dc:language="en"
         dc:source="https://en.wikipedia.org/wiki/File:Hyperbola_properties.svg">
      <dc:creator>
        <rdf:Bag>
          <rdf:li>Inductiveload - https://commons.wikimedia.org/wiki/User:Inductiveload</rdf:li>
          <rdf:li>Ryan Lopopolo</rdf:li>
        </rdf:Bag>
      </dc:creator>
    </rdf:Description>
  </rdf:RDF>
</metadata>
<g>
<clipPath id="cut-off-bottom">
<rect x="0" y="0" width="230" height="80" />
</clipPath>
<g id="hyperbola-logo" clip-path="url(#cut-off-bottom)">
<g id="axes">
<path id="svg_6" fill="none" stroke="#aaaaaa" stroke-width="2" stroke-linecap="butt" stroke-miterlimit="4" stroke-dashoffset="0" d="m 80 0 l 0 140" />
<path id="svg_7" fill="none" stroke="#aaaaaa" stroke-width="2" stroke-linecap="butt" stroke-miterlimit="4" stroke-dashoffset="0" d="m 0 70 l 230 0"/>
</g>
<g id="hyperbola-shape">
<path id="svg_9" fill="none" stroke="#28dcdc" stroke-width="4" d="m10.878479,136c4.10199,-4.349 8.20203,-8.69897 12.29199,-13.05701c4.40604,-4.95703 8.84302,-9.88597 13.22703,-14.85902c2.54098,-3.11298 5.13198,-6.18799 7.64297,-9.32497c1.53903,-2.106 3.14801,-4.164 4.642,-6.30199c1.49301,-2.138 3.535,-5.20803 4.92204,-8.03703c2.39397,-4.54699 4.07597,-9.647 3.77298,-14.841c-0.27799,-5.265 -2.41798,-10.22698 -5.03001,-14.73299c-1.11996,-1.93599 -2.39899,-3.777 -3.59601,-5.666c-1.76898,-2.362 -3.47498,-4.77399 -5.28497,-7.105c-2.54603,-3.071 -5.03901,-6.186 -7.616,-9.22999c-3.896,-4.37 -7.75501,-8.77401 -11.67502,-13.12201c-3.66699,-3.896 -7.32898,-7.79599 -10.99197,-11.695"/>
<path id="svg_10" fill="none" stroke="#28dcdc" stroke-width="4" d="m149.121521,136c-1.04898,-1.09094 -2.09695,-2.18198 -3.14499,-3.27298c-5.74701,-6.27795 -11.52002,-12.53302 -17.24997,-18.82596c-3.02603,-3.54498 -6.09305,-7.05499 -9.09103,-10.62201c-2.04898,-2.63602 -4.15399,-5.23203 -6.16901,-7.89401c-2.00897,-2.914 -4.15698,-5.743 -5.85699,-8.856c-2.61399,-4.52499 -4.715,-9.53098 -4.92801,-14.81599c-0.23596,-5.25301 1.53703,-10.38099 3.996,-14.953c1.43805,-2.795 3.16901,-5.42699 4.99902,-7.979c1.21198,-1.74799 1.737,-2.58699 3.76901,-5.147c2.03299,-2.56 3.98401,-5.185 6.15396,-7.631c2.48003,-2.872 4.90503,-5.792 7.422,-8.63199c5.55704,-6.05901 11.086,-12.14501 16.65999,-18.18901c0.36302,-0.377 0.72502,-0.754 1.08702,-1.131"/>
</g>
</g>
<g transform="translate(120, 59)">
<path fill="#28dcdc" stroke="#28dcdc" d="M9.32 5.63L9.32 5.63L5.84 8.57L5.84 8.57Q3.36 10.74 2.52 10.74L2.52 10.74L2.52 10.74Q1.76 10.74 0.92 8.99L0.92 8.99L0.92 8.99Q0.08 7.25 0.08 5.94L0.08 5.94L0.08 5.94Q0.08 4.82 0.42 4.05L0.42 4.05L0.42 4.05Q0.76 3.28 1.60 2.05L1.60 2.05L1.60 2.05Q2.79 0.39 3.89-0.76L3.89-0.76L3.89-0.76Q4.98-1.91 5.82-2.55L5.82-2.55L5.82-2.55Q6.66-3.18 6.99-3.18L6.99-3.18L6.99-3.18Q7.52-3.18 8.02-2.64L8.02-2.64L8.02-2.64Q8.52-2.09 8.52-1.50L8.52-1.50L8.52-1.50Q8.52-1.13 7.98-0.31L7.98-0.31L7.98-0.31Q7.44 0.51 6.28 1.77L6.28 1.77L6.28 1.77Q5.12 3.03 3.05 4.79L3.05 4.79L2.68 5.86L2.68 5.86Q2.52 6.17 2.52 6.41L2.52 6.41L2.52 6.41Q2.52 6.93 3.05 6.93L3.05 6.93L3.05 6.93Q3.59 6.93 5.62 5.55L5.62 5.55L5.62 5.55Q7.64 4.16 10 1.82L10 1.82L10 1.82Q10.92 0.90 11.52 0.20L11.52 0.20L11.52 0.20Q12.13-0.51 12.62-1.12L12.62-1.12L12.62-1.12Q13.11-1.74 13.43-2.05L13.43-2.05L13.43-2.05Q13.75-2.36 14.00-2.38L14.00-2.38L14.00-2.38Q14.49-2.44 14.77-1.97L14.77-1.97L14.77-1.97Q15.04-1.50 15.04-0.59L15.04-0.59L15.04-0.59Q15.04-0.06 14.57 0.73L14.57 0.73L14.57 0.73Q14.10 1.52 12.81 3.43L12.81 3.43L12.81 3.43Q11.52 5.33 10.24 7.37L10.24 7.37L10.24 7.37Q8.96 9.41 7.64 11.97L7.64 11.97L7.64 11.97Q7.70 11.91 8.84 10.80L8.84 10.80L8.84 10.80Q9.98 9.69 11.25 8.48L11.25 8.48L11.25 8.48Q12.52 7.27 13.34 6.53L13.34 6.53L13.34 6.53Q14.16 5.80 15.39 4.82L15.39 4.82L15.39 6.13L15.39 6.13Q12.75 8.96 10.62 11.50L10.62 11.50L10.62 11.50Q8.48 14.04 7.31 15.57L7.31 15.57L7.31 15.57Q6.15 17.09 5.96 17.34L5.96 17.34L5.96 17.34Q5.43 18.03 5.01 18.62L5.01 18.62L5.01 18.62Q4.59 19.22 4.31 19.54L4.31 19.54L4.31 19.54Q4.02 19.86 3.85 19.86L3.85 19.86L3.85 19.86Q3.44 19.86 3.12 19.05L3.12 19.05L3.12 19.05Q2.79 18.24 2.79 17.62L2.79 17.62L2.79 17.62Q2.79 17.05 3.01 16.62L3.01 16.62L3.01 16.62Q4.41 13.46 9.32 5.63ZM15.08 6.50L15.08 6.50L15.08 5.14L15.08 5.14Q17.81 2.17 19.79-0.45L19.79-0.45L19.79-0.45Q21.78-3.07 22.93-4.61L22.93-4.61L22.93-4.61Q24.08-6.15 24.96-6.79L24.96-6.79L24.96-6.79Q25.84-7.42 27.17-7.42L27.17-7.42L27.17-7.42Q27.83-7.42 27.83-6.91L27.83-6.91L27.83-6.91Q27.83-6.50 27.29-5.70L27.29-5.70L27.29-5.70Q26.76-4.90 25.92-4.06L25.92-4.06L25.92-4.06Q24.80-2.97 23.74-1.32L23.74-1.32L23.74-1.32Q22.68 0.33 21.33 2.89L21.33 2.89L21.33 2.89Q22.38 2.07 23.76 0.95L23.76 0.95L23.76 0.95Q25.14-0.18 26.01-0.81L26.01-0.81L26.01-0.81Q26.88-1.45 27.72-1.82L27.72-1.82L27.72-1.82Q28.57-2.19 29.43-2.19L29.43-2.19L29.43-2.19Q29.98-2.19 30.15-1.99L30.15-1.99L30.15-1.99Q30.31-1.80 30.31-1.23L30.31-1.23L30.31-1.23Q30.31 0.25 29.59 1.67L29.59 1.67L29.59 1.67Q28.87 3.09 27.52 4.61L27.52 4.61L27.52 4.61Q26.17 6.13 24.20 7.93L24.20 7.93L24.20 7.93Q24.88 8.18 25.61 8.18L25.61 8.18L25.61 8.18Q27.87 8.18 31.68 4.73L31.68 4.73L31.68 6.13L31.68 6.13Q30.20 7.46 28.78 8.63L28.78 8.63L28.78 8.63Q27.36 9.80 26.11 10.51L26.11 10.51L26.11 10.51Q24.86 11.21 23.81 11.21L23.81 11.21L23.81 11.21Q23.42 11.21 22.98 11.12L22.98 11.12L22.98 11.12Q22.54 11.04 22.17 10.91L22.17 10.91L22.17 10.91Q21.80 10.78 21.21 10.55L21.21 10.55L21.21 10.55Q20.63 10.31 20.31 10.21L20.31 10.21L20.31 10.21Q19.69 10.37 19.61 10.37L19.61 10.37L19.61 10.37Q18.93 10.37 18.01 9.82L18.01 9.82L18.01 9.82Q17.36 11.07 16.59 13.06L16.59 13.06L16.59 13.06Q15.82 15.04 15.29 16.21L15.29 16.21L15.29 16.21Q14.77 17.38 13.89 18.46L13.89 18.46L13.89 18.46Q13.40 18.95 13.20 18.95L13.20 18.95L13.20 18.95Q12.36 18.95 12.36 17.46L12.36 17.46L12.36 17.46Q12.36 16.17 12.88 14.78L12.88 14.78L12.88 14.78Q13.40 13.38 14.15 12.13L14.15 12.13L14.15 12.13Q14.90 10.88 15.80 9.60L15.80 9.60L15.80 9.60Q16.70 8.32 17.07 7.70L17.07 7.70L17.07 7.70Q20.16 2.38 21.88-1.35L21.88-1.35L21.88-1.35Q17.38 4.12 15.08 6.50M23.01 7.46L23.01 7.46L23.01 7.46Q24.94 5.43 25.89 4.00L25.89 4.00L25.89 4.00Q26.84 2.58 26.84 1.82L26.84 1.82L26.84 1.82Q26.84 1.09 26.11 1.09L26.11 1.09L26.11 1.09Q25.14 1.09 23.37 2.71L23.37 2.71L23.37 2.71Q21.60 4.32 19.73 7.05L19.73 7.05L19.73 7.05Q21.17 6.89 21.66 6.94L21.66 6.94L21.66 6.94Q22.15 6.99 23.01 7.46ZM34.67 5.57L34.67 5.57L34.67 6.05L34.67 6.05Q34.67 7.21 35.23 7.85L35.23 7.85L35.23 7.85Q35.80 8.50 36.72 8.50L36.72 8.50L36.72 8.50Q37.68 8.50 38.70 8.05L38.70 8.05L38.70 8.05Q39.73 7.60 40.74 6.86L40.74 6.86L40.74 6.86Q41.76 6.11 43.22 4.86L43.22 4.86L43.22 6.05L43.22 6.05Q41.02 8.71 39.08 10.13L39.08 10.13L39.08 10.13Q37.15 11.54 35.16 11.54L35.16 11.54L35.16 11.54Q33.42 11.54 32.40 10.20L32.40 10.20L32.40 10.20Q31.39 8.85 31.39 6.50L31.39 6.50L31.39 6.50Q31.39 4.45 32.34 2.78L32.34 2.78L32.34 2.78Q33.30 1.11 35.47-0.74L35.47-0.74L35.47-0.74Q36.95-2.01 38.42-2.66L38.42-2.66L38.42-2.66Q39.88-3.30 41.04-3.30L41.04-3.30L41.04-3.30Q41.95-3.30 42.49-2.88L42.49-2.88L42.49-2.88Q43.03-2.46 43.03-1.62L43.03-1.62L43.03-1.62Q43.03-0.39 42.11 0.83L42.11 0.83L42.11 0.83Q41.19 2.05 39.31 3.25L39.31 3.25L39.31 3.25Q37.42 4.45 34.67 5.57M34.86 4.30L34.86 4.30L34.86 4.30Q36.62 3.61 37.87 2.60L37.87 2.60L37.87 2.60Q39.12 1.58 39.72 0.65L39.72 0.65L39.72 0.65Q40.31-0.27 40.31-0.70L40.31-0.70L40.31-0.70Q40.31-1.15 39.90-1.15L39.90-1.15L39.90-1.15Q39.55-1.15 38.76-0.70L38.76-0.70L38.76-0.70Q37.97-0.25 37.16 0.47L37.16 0.47L37.16 0.47Q36.35 1.19 35.70 2.17L35.70 2.17L35.70 2.17Q35.06 3.14 34.86 4.30ZM43.03 6.37L43.03 6.37L43.03 5.10L43.03 5.10Q44.08 3.85 44.63 2.97L44.63 2.97L44.63 2.97Q44.00 2.75 43.72 2.44L43.72 2.44L43.72 2.44Q43.44 2.13 43.44 1.50L43.44 1.50L43.44 1.50Q43.44 0.80 44.02-0.27L44.02-0.27L44.02-0.27Q44.61-1.35 45.47-2.29L45.47-2.29L45.47-2.29Q46.33-3.22 47.03-3.50L47.03-3.50L47.03-3.50Q47.30-3.63 47.56-3.63L47.56-3.63L47.56-3.63Q47.95-3.63 47.95-3.26L47.95-3.26L47.95-3.26Q47.95-2.93 47.34-1.91L47.34-1.91L47.34-1.91Q51.37-2.54 52.42-2.54L52.42-2.54L52.42-2.54Q52.83-2.54 52.99-2.46L52.99-2.46L52.99-2.46Q53.32-2.29 53.54-1.64L53.54-1.64L53.54-1.64Q53.75-1.00 53.75-0.35L53.75-0.35L53.75-0.35Q53.75 0.06 53.39 0.54L53.39 0.54L53.39 0.54Q53.03 1.02 52.15 1.93L52.15 1.93L52.15 1.93Q51.11 3.05 50.41 4.36L50.41 4.36L50.41 4.36Q49.71 5.66 49.71 6.33L49.71 6.33L49.71 6.33Q49.71 7.25 50.84 7.25L50.84 7.25L50.84 7.25Q52.03 7.25 54.98 4.82L54.98 4.82L54.98 6.13L54.98 6.13Q53.36 7.83 52.30 8.81L52.30 8.81L52.30 8.81Q51.25 9.79 50.35 10.36L50.35 10.36L50.35 10.36Q49.45 10.94 48.75 10.94L48.75 10.94L48.75 10.94Q47.93 10.94 47.38 10.19L47.38 10.19L47.38 10.19Q46.84 9.43 46.84 8.01L46.84 8.01L46.84 8.01Q46.84 7.17 47.27 6.09L47.27 6.09L47.27 6.09Q47.70 5.02 48.53 3.76L48.53 3.76L48.53 3.76Q49.36 2.50 50.39 1.25L50.39 1.25L50.39 1.25Q49.84 1.37 49.16 1.49L49.16 1.49L49.16 1.49Q48.48 1.62 47.71 1.76L47.71 1.76L47.71 1.76Q46.95 1.89 46.54 1.97L46.54 1.97L46.54 1.97Q45.33 4.39 43.03 6.37ZM67.83 4.90L67.83 4.90L67.83 6.17L67.83 6.17Q65.80 7.46 64.63 7.46L64.63 7.46L64.63 7.46Q63.98 7.46 63.26 7.25L63.26 7.25L63.26 7.25Q61.50 9.47 60.24 10.51L60.24 10.51L60.24 10.51Q58.98 11.54 57.71 11.54L57.71 11.54L57.71 11.54Q56.25 11.54 55.46 10L55.46 10L55.46 10Q54.67 8.46 54.67 6.17L54.67 6.17L54.67 6.17Q54.67 3.07 56.54-0.60L56.54-0.60L56.54-0.60Q58.42-4.26 61.06-7.45L61.06-7.45L61.06-7.45Q63.71-10.64 66.19-12.73L66.19-12.73L66.19-12.73Q68.67-14.82 69.55-14.82L69.55-14.82L69.55-14.82Q70.39-14.82 70.39-13.67L70.39-13.67L70.39-13.67Q70.39-8.55 57.27 4.18L57.27 4.18L57.27 4.18Q57.23 4.53 57.23 5.57L57.23 5.57L57.23 5.57Q57.23 8.26 58.67 8.26L58.67 8.26L58.67 8.26Q59.24 8.26 59.81 7.80L59.81 7.80L59.81 7.80Q60.39 7.34 61.58 6.05L61.58 6.05L61.58 6.05Q61.11 5 61.11 4.49L61.11 4.49L61.11 4.49Q61.11 3.42 61.99 2.17L61.99 2.17L61.99 2.17Q62.87 0.92 63.99 0.01L63.99 0.01L63.99 0.01Q65.12-0.90 65.63-0.90L65.63-0.90L65.63-0.90Q66.43-0.90 66.43 0.25L66.43 0.25L66.43 0.25Q66.43 1.13 65.97 2.36L65.97 2.36L65.97 2.36Q65.51 3.59 64.63 5.18L64.63 5.18L64.63 5.18Q64.96 5.45 65.16 5.58L65.16 5.58L65.16 5.58Q65.35 5.70 65.74 5.70L65.74 5.70L65.74 5.70Q66.64 5.70 67.83 4.90M57.91 1.97L57.91 1.97L57.91 1.97Q58.93 1.09 59.95-0.11L59.95-0.11L59.95-0.11Q60.98-1.31 62.95-3.79L62.95-3.79L62.95-3.79Q64.84-6.17 65.93-7.76L65.93-7.76L65.93-7.76Q67.01-9.36 67.56-10.41L67.56-10.41L67.56-10.41Q68.11-11.46 68.11-11.86L68.11-11.86L68.11-11.86Q68.11-12.15 67.95-12.15L67.95-12.15L67.95-12.15Q67.52-12.15 66.16-10.73L66.16-10.73L66.16-10.73Q64.80-9.32 63.07-6.86L63.07-6.86L63.07-6.86Q60.66-3.46 59.59-1.74L59.59-1.74L59.59-1.74Q58.52-0.02 57.91 1.97ZM80.39 4.82L80.39 4.82L80.39 6.13L80.39 6.13Q79.10 7.30 78.32 7.70L78.32 7.70L78.32 7.70Q77.54 8.09 76.07 8.01L76.07 8.01L76.07 8.01Q73.54 11.02 71.60 11.02L71.60 11.02L71.60 11.02Q70.51 11.02 69.61 10.29L69.61 10.29L69.61 10.29Q68.71 9.57 68.17 8.32L68.17 8.32L68.17 8.32Q67.64 7.07 67.64 5.53L67.64 5.53L67.64 5.53Q67.64 4.28 68.47 2.75L68.47 2.75L68.47 2.75Q69.30 1.23 70.62-0.09L70.62-0.09L70.62-0.09Q71.93-1.41 73.44-2.22L73.44-2.22L73.44-2.22Q74.94-3.03 76.23-3.03L76.23-3.03L76.23-3.03Q77.15-3.03 77.68-2.74L77.68-2.74L77.68-2.74Q78.20-2.46 78.20-1.95L78.20-1.95L78.20-1.95Q78.20-1.56 77.75-1.05L77.75-1.05L77.75-1.05Q78.50-0.90 78.77-0.54L78.77-0.54L78.77-0.54Q79.04-0.18 79.04 0.78L79.04 0.78L79.04 0.78Q79.04 1.72 78.60 3.14L78.60 3.14L78.60 3.14Q78.16 4.57 77.40 5.82L77.40 5.82L77.75 6.17L78.05 6.17L78.05 6.17Q78.38 6.17 78.70 6.01L78.70 6.01L78.70 6.01Q79.02 5.84 79.28 5.65L79.28 5.65L79.28 5.65Q79.53 5.47 80.39 4.82M76.37-0.31L76.37-0.31L76.37-0.31Q74.75 0.66 73.59 1.46L73.59 1.46L73.59 1.46Q72.44 2.25 71.64 3.06L71.64 3.06L71.64 3.06Q70.84 3.87 70.57 4.69L70.57 4.69L70.57 4.69Q70.08 6.88 70.08 7.05L70.08 7.05L70.08 7.05Q70.08 8.34 71.88 8.34L71.88 8.34L71.88 8.34Q72.71 8.34 74.69 6.89L74.69 6.89L74.69 6.89Q74.36 5.98 74.36 5.14L74.36 5.14L74.36 5.14Q74.36 3.91 74.86 2.63L74.86 2.63L74.86 2.63Q75.37 1.35 76.37-0.31ZM89.69 4.65L89.69 4.65L89.69 6.09L89.69 6.09Q85.61 11.50 83.05 11.50L83.05 11.50L83.05 11.50Q81.66 11.50 80.87 9.99L80.87 9.99L80.87 9.99Q80.08 8.48 80.08 6.02L80.08 6.02L80.08 6.02Q80.08 4.02 81.02 1.28L81.02 1.28L81.02 1.28Q81.95-1.46 83.53-4.29L83.53-4.29L83.53-4.29Q85.10-7.11 86.79-9.21L86.79-9.21L86.79-9.21Q88.48-11.31 89.92-12.15L89.92-12.15L89.92-12.15Q90.51-12.50 90.84-12.50L90.84-12.50L90.84-12.50Q91.25-12.50 91.39-12.14L91.39-12.14L91.39-12.14Q91.52-11.78 91.52-10.90L91.52-10.90L91.52-10.90Q91.52-8.18 89.32-4.23L89.32-4.23L89.32-4.23Q87.11-0.27 83.16 3.85L83.16 3.85L83.16 3.85Q82.97 4.86 82.97 5.41L82.97 5.41L82.97 5.41Q82.97 6.66 83.51 7.44L83.51 7.44L83.51 7.44Q84.04 8.22 85 8.22L85 8.22L85 8.22Q85.49 8.22 86.05 7.84L86.05 7.84L86.05 7.84Q86.62 7.46 87.25 6.89L87.25 6.89L87.25 6.89Q87.87 6.33 89.69 4.65M83.85 1.13L83.85 1.13L83.85 1.13Q84.86 0.14 85.81-1.13L85.81-1.13L85.81-1.13Q86.76-2.40 87.60-3.85L87.60-3.85L87.60-3.85Q88.44-5.29 88.92-6.45L88.92-6.45L88.92-6.45Q89.39-7.60 89.39-8.18L89.39-8.18L89.39-8.18Q89.39-8.63 89.08-8.63L89.08-8.63L89.08-8.63Q88.96-8.63 88.63-8.42L88.63-8.42L88.63-8.42Q87.44-7.44 85.96-4.60L85.96-4.60L85.96-4.60Q84.47-1.76 83.85 1.13ZM91.80 1.37L91.80 1.37L91.80 1.37Q94.77-1.33 97.56-2.64L97.56-2.64L97.56-2.64Q100.35-3.95 101.88-3.95L101.88-3.95L101.88-3.95Q102.29-3.95 102.64-3.60L102.64-3.60L102.64-3.60Q102.99-3.26 103.19-2.81L103.19-2.81L103.19-2.81Q103.40-2.36 103.40-2.15L103.40-2.15L103.40-2.15Q103.40-1.80 103.13-1.63L103.13-1.63L103.13-1.63Q102.85-1.46 102.17-1.23L102.17-1.23L102.17-1.23Q102.30-0.92 102.52-0.43L102.52-0.43L102.52-0.43Q102.73 0.06 102.85 0.36L102.85 0.36L102.85 0.36Q102.97 0.66 102.97 0.90L102.97 0.90L102.97 0.90Q102.97 1.37 102.02 2.65L102.02 2.65L102.02 2.65Q101.07 3.93 100.69 4.53L100.69 4.53L100.69 4.53Q100.31 5.14 100.31 6.02L100.31 6.02L100.31 6.02Q100.31 7.46 101.64 7.46L101.64 7.46L101.64 7.46Q103.01 7.46 105.92 4.90L105.92 4.90L105.92 6.09L105.92 6.09Q100.98 11.58 98.85 11.58L98.85 11.58L98.85 11.58Q98.09 11.58 97.76 11.08L97.76 11.08L97.76 11.08Q97.44 10.59 97.44 9.61L97.44 9.61L97.44 9.61Q97.44 8.07 98.55 5.14L98.55 5.14L98.55 5.14Q95.70 8.30 94.32 9.64L94.32 9.64L94.32 9.64Q92.93 10.98 92.03 10.98L92.03 10.98L92.03 10.98Q91.60 10.98 90.96 10.23L90.96 10.23L90.96 10.23Q90.31 9.49 89.81 8.31L89.81 8.31L89.81 8.31Q89.32 7.13 89.32 5.86L89.32 5.86L89.32 5.86Q89.32 4.94 89.49 4.33L89.49 4.33L89.49 4.33Q89.67 3.71 90.18 3.07L90.18 3.07L90.18 3.07Q90.68 2.42 91.80 1.37M101.15-0.78L101.15-0.78L101.15-0.78Q96.07 1.54 93.92 3.16L93.92 3.16L93.92 3.16Q91.76 4.79 91.76 6.50L91.76 6.50L91.76 6.50Q91.76 7.13 91.97 7.53L91.97 7.53L91.97 7.53Q92.19 7.93 92.56 7.93L92.56 7.93L92.56 7.93Q92.77 7.93 93.32 7.66L93.32 7.66L93.32 7.66Q95.37 6.45 97.07 4.50L97.07 4.50L97.07 4.50Q98.77 2.56 101.15-0.78Z"/>
</g>
</g>
</svg>
